REM DIRINDEX 1\2\4\18,1\2\4\19,1\2\5\20,1\2\5\21,1\2\6\22,1\2\6\23,1\2\7\24,1\2\8\25,1\2\9\26,1\2\10\27,1\2\10\28,1\3\11\29,1\3\11\30,1\3\11\31,1\3\11\32,1\3\12\33,1\3\12\34,1\3\12\35,1\3\12\36,1\3\13\37,1\3\13\38,1\3\13\39,1\3\13\40,1\3\14\41,1\3\14\42,1\3\15\43,1\3\15\44,1\3\16\45,1\3\16\46,1\3\17\47,1\3\17\48,1\3\17\49,1\3\17\50
REM DIRNAME folder01,folder02,folder03,folder04,folder05,folder06,folder07,folder08,folder09,folder10,folder11,folder12,folder13,folder14,folder15,folder16,folder17,folder18,folder19,folder20,folder21,folder22,folder23,folder24,folder25,folder26,folder27,folder28,folder29,folder30,folder31,folder32,folder33,folder34,folder35,folder36,folder37,folder38,folder39,folder40,folder41,folder42,folder43,folder44,folder45,folder46,folder47,folder48,folder49,folder50
TITLE ""
FILE "05.mp3" MP3
  TRACK 01 AUDIO
    TITLE "0:"
    INDEX 01 00:00:00
  TRACK 02 AUDIO
    TITLE "33:cjc135_4154"
    INDEX 01 00:00:11
  TRACK 03 AUDIO
    TITLE "0:"
    INDEX 01 00:01:40
  TRACK 04 AUDIO
    TITLE "34:cjc135_4155"
    INDEX 01 00:02:14
  TRACK 05 AUDIO
    TITLE "0:"
    INDEX 01 00:05:34
  TRACK 06 AUDIO
    TITLE "35:cjc135_4156"
    INDEX 01 00:05:65
  TRACK 07 AUDIO
    TITLE "0:"
    INDEX 01 00:09:40
  TRACK 08 AUDIO
    TITLE "36:cjc135_4157"
    INDEX 01 00:09:67
  TRACK 09 AUDIO
    TITLE "0:"
    INDEX 01 00:13:45
  TRACK 10 AUDIO
    TITLE "33:cjc135_4158"
    INDEX 01 00:14:45
  TRACK 11 AUDIO
    TITLE "0:"
    INDEX 01 00:15:70
  TRACK 12 AUDIO
    TITLE "34:cjc135_4159"
    INDEX 01 00:16:42
  TRACK 13 AUDIO
    TITLE "0:"
    INDEX 01 00:19:58
  TRACK 14 AUDIO
    TITLE "35:cjc135_4160"
    INDEX 01 00:20:10
  TRACK 15 AUDIO
    TITLE "0:"
    INDEX 01 00:22:58
  TRACK 16 AUDIO
    TITLE "36:cjc135_4161"
    INDEX 01 00:23:06
  TRACK 17 AUDIO
    TITLE "0:"
    INDEX 01 00:25:56
  TRACK 18 AUDIO
    TITLE "33:cjc135_4162"
    INDEX 01 00:26:54
  TRACK 19 AUDIO
    TITLE "0:"
    INDEX 01 00:28:27
  TRACK 20 AUDIO
    TITLE "34:cjc135_4163"
    INDEX 01 00:29:03
  TRACK 21 AUDIO
    TITLE "0:"
    INDEX 01 00:37:14
  TRACK 22 AUDIO
    TITLE "35:cjc135_4164"
    INDEX 01 00:37:40
  TRACK 23 AUDIO
    TITLE "0:"
    INDEX 01 00:45:33
  TRACK 24 AUDIO
    TITLE "36:cjc135_4165"
    INDEX 01 00:45:57
  TRACK 25 AUDIO
    TITLE "0:"
    INDEX 01 00:53:49
  TRACK 26 AUDIO
    TITLE "33:cjc135_4166"
    INDEX 01 00:54:50
  TRACK 27 AUDIO
    TITLE "0:"
    INDEX 01 00:55:51
  TRACK 28 AUDIO
    TITLE "34:cjc135_4167"
    INDEX 01 00:56:25
  TRACK 29 AUDIO
    TITLE "0:"
    INDEX 01 00:59:61
  TRACK 30 AUDIO
    TITLE "35:cjc135_4168"
    INDEX 01 01:00:12
  TRACK 31 AUDIO
    TITLE "0:"
    INDEX 01 01:02:14
  TRACK 32 AUDIO
    TITLE "36:cjc135_4169"
    INDEX 01 01:02:40
  TRACK 33 AUDIO
    TITLE "0:"
    INDEX 01 01:04:39
  TRACK 34 AUDIO
    TITLE "33:cjc135_4170"
    INDEX 01 01:05:42
  TRACK 35 AUDIO
    TITLE "0:"
    INDEX 01 01:06:61
  TRACK 36 AUDIO
    TITLE "34:cjc135_4171"
    INDEX 01 01:07:37
  TRACK 37 AUDIO
    TITLE "0:"
    INDEX 01 01:10:16
  TRACK 38 AUDIO
    TITLE "35:cjc135_4172"
    INDEX 01 01:10:39
  TRACK 39 AUDIO
    TITLE "0:"
    INDEX 01 01:12:64
  TRACK 40 AUDIO
    TITLE "36:cjc135_4173"
    INDEX 01 01:13:12
  TRACK 41 AUDIO
    TITLE "0:"
    INDEX 01 01:15:37
  TRACK 42 AUDIO
    TITLE "33:cjc135_4174"
    INDEX 01 01:16:34
  TRACK 43 AUDIO
    TITLE "0:"
    INDEX 01 01:17:69
  TRACK 44 AUDIO
    TITLE "34:cjc135_4175"
    INDEX 01 01:18:45
  TRACK 45 AUDIO
    TITLE "0:"
    INDEX 01 01:21:23
  TRACK 46 AUDIO
    TITLE "35:cjc135_4176"
    INDEX 01 01:21:49
  TRACK 47 AUDIO
    TITLE "0:"
    INDEX 01 01:24:49
  TRACK 48 AUDIO
    TITLE "36:cjc135_4177"
    INDEX 01 01:24:73
  TRACK 49 AUDIO
    TITLE "0:"
    INDEX 01 01:27:69
  TRACK 50 AUDIO
    TITLE "33:cjc135_4178"
    INDEX 01 01:28:71
  TRACK 51 AUDIO
    TITLE "0:"
    INDEX 01 01:30:18
  TRACK 52 AUDIO
    TITLE "34:cjc135_4179"
    INDEX 01 01:30:67
  TRACK 53 AUDIO
    TITLE "0:"
    INDEX 01 01:33:58
  TRACK 54 AUDIO
    TITLE "35:cjc135_4180"
    INDEX 01 01:34:06
  TRACK 55 AUDIO
    TITLE "0:"
    INDEX 01 01:36:39
  TRACK 56 AUDIO
    TITLE "36:cjc135_4181"
    INDEX 01 01:36:68
  TRACK 57 AUDIO
    TITLE "0:"
    INDEX 01 01:39:25
  TRACK 58 AUDIO
    TITLE "33:cjc135_4182"
    INDEX 01 01:40:27
  TRACK 59 AUDIO
    TITLE "0:"
    INDEX 01 01:41:34
  TRACK 60 AUDIO
    TITLE "34:cjc135_4183"
    INDEX 01 01:42:10
  TRACK 61 AUDIO
    TITLE "0:"
    INDEX 01 01:48:11
  TRACK 62 AUDIO
    TITLE "35:cjc135_4184"
    INDEX 01 01:48:34
  TRACK 63 AUDIO
    TITLE "0:"
    INDEX 01 01:54:03
  TRACK 64 AUDIO
    TITLE "36:cjc135_4185"
    INDEX 01 01:54:27
  TRACK 65 AUDIO
    TITLE "0:"
    INDEX 01 01:59:69
  TRACK 66 AUDIO
    TITLE "33:cjc135_4186"
    INDEX 01 02:00:71
  TRACK 67 AUDIO
    TITLE "0:"
    INDEX 01 02:01:72
  TRACK 68 AUDIO
    TITLE "34:cjc135_4187"
    INDEX 01 02:02:50
  TRACK 69 AUDIO
    TITLE "0:"
    INDEX 01 02:04:39
  TRACK 70 AUDIO
    TITLE "35:cjc135_4188"
    INDEX 01 02:04:66
  TRACK 71 AUDIO
    TITLE "0:"
    INDEX 01 02:06:46
  TRACK 72 AUDIO
    TITLE "36:cjc135_4189"
    INDEX 01 02:06:73
  TRACK 73 AUDIO
    TITLE "0:"
    INDEX 01 02:08:50
  TRACK 74 AUDIO
    TITLE "33:cjc135_4190"
    INDEX 01 02:09:52
  TRACK 75 AUDIO
    TITLE "0:"
    INDEX 01 02:10:69
  TRACK 76 AUDIO
    TITLE "34:cjc135_4191"
    INDEX 01 02:11:43
  TRACK 77 AUDIO
    TITLE "0:"
    INDEX 01 02:17:02
  TRACK 78 AUDIO
    TITLE "35:cjc135_4192"
    INDEX 01 02:17:28
  TRACK 79 AUDIO
    TITLE "0:"
    INDEX 01 02:22:15
  TRACK 80 AUDIO
    TITLE "36:cjc135_4193"
    INDEX 01 02:22:41
  TRACK 81 AUDIO
    TITLE "0:"
    INDEX 01 02:27:28
  TRACK 82 AUDIO
    TITLE "33:cjc135_4194"
    INDEX 01 02:28:28
  TRACK 83 AUDIO
    TITLE "0:"
    INDEX 01 02:29:37
  TRACK 84 AUDIO
    TITLE "34:cjc135_4195"
    INDEX 01 02:30:13
  TRACK 85 AUDIO
    TITLE "0:"
    INDEX 01 02:33:45
  TRACK 86 AUDIO
    TITLE "35:cjc135_4196"
    INDEX 01 02:33:70
  TRACK 87 AUDIO
    TITLE "0:"
    INDEX 01 02:36:49
  TRACK 88 AUDIO
    TITLE "36:cjc135_4197"
    INDEX 01 02:37:09
  TRACK 89 AUDIO
    TITLE "0:"
    INDEX 01 02:39:63
  TRACK 90 AUDIO
    TITLE "34:cjc135_4198"
    INDEX 01 02:40:74
  TRACK 91 AUDIO
    TITLE "0:"
    INDEX 01 02:45:14
  TRACK 92 AUDIO
    TITLE "35:cjc135_4199"
    INDEX 01 02:45:32
  TRACK 93 AUDIO
    TITLE "0:"
    INDEX 01 02:49:04
  TRACK 94 AUDIO
    TITLE "36:cjc135_4200"
    INDEX 01 02:49:24
  TRACK 95 AUDIO
    TITLE "0:"
    INDEX 01 02:52:73
  TRACK 96 AUDIO
    TITLE "33:cjc135_4201"
    INDEX 01 02:53:73
  TRACK 97 AUDIO
    TITLE "0:"
    INDEX 01 02:55:19
  TRACK 98 AUDIO
    TITLE "34:cjc135_4202"
    INDEX 01 02:55:68
  TRACK 99 AUDIO
    TITLE "0:"
    INDEX 01 02:58:70
  TRACK 100 AUDIO
    TITLE "35:cjc135_4203"
    INDEX 01 02:59:20
  TRACK 101 AUDIO
    TITLE "0:"
    INDEX 01 03:01:68
  TRACK 102 AUDIO
    TITLE "36:cjc135_4204"
    INDEX 01 03:02:19
  TRACK 103 AUDIO
    TITLE "0:"
    INDEX 01 03:04:67
  TRACK 104 AUDIO
    TITLE "33:cjc135_4205"
    INDEX 01 03:05:64
  TRACK 105 AUDIO
    TITLE "0:"
    INDEX 01 03:06:73
  TRACK 106 AUDIO
    TITLE "34:cjc135_4206"
    INDEX 01 03:07:47
  TRACK 107 AUDIO
    TITLE "0:"
    INDEX 01 03:10:34
  TRACK 108 AUDIO
    TITLE "35:cjc135_4207"
    INDEX 01 03:10:59
  TRACK 109 AUDIO
    TITLE "0:"
    INDEX 01 03:13:60
  TRACK 110 AUDIO
    TITLE "36:cjc135_4208"
    INDEX 01 03:14:12
  TRACK 111 AUDIO
    TITLE "0:"
    INDEX 01 03:17:14
  TRACK 112 AUDIO
    TITLE "33:cjc135_4209"
    INDEX 01 03:18:14
  TRACK 113 AUDIO
    TITLE "0:"
    INDEX 01 03:19:25
  TRACK 114 AUDIO
    TITLE "34:cjc135_4210"
    INDEX 01 03:20:03
  TRACK 115 AUDIO
    TITLE "0:"
    INDEX 01 03:23:09
  TRACK 116 AUDIO
    TITLE "35:cjc135_4211"
    INDEX 01 03:23:35
  TRACK 117 AUDIO
    TITLE "0:"
    INDEX 01 03:26:39
  TRACK 118 AUDIO
    TITLE "36:cjc135_4212"
    INDEX 01 03:26:64
  TRACK 119 AUDIO
    TITLE "0:"
    INDEX 01 03:29:70
  TRACK 120 AUDIO
    TITLE "33:cjc135_4213"
    INDEX 01 03:30:70
  TRACK 121 AUDIO
    TITLE "0:"
    INDEX 01 03:32:00
  TRACK 122 AUDIO
    TITLE "34:cjc135_4214"
    INDEX 01 03:32:49
  TRACK 123 AUDIO
    TITLE "0:"
    INDEX 01 03:36:45
  TRACK 124 AUDIO
    TITLE "35:cjc135_4215"
    INDEX 01 03:36:74
  TRACK 125 AUDIO
    TITLE "0:"
    INDEX 01 03:40:39
  TRACK 126 AUDIO
    TITLE "36:cjc135_4216"
    INDEX 01 03:40:64
  TRACK 127 AUDIO
    TITLE "0:"
    INDEX 01 03:44:31
  TRACK 128 AUDIO
    TITLE "33:cjc135_4217"
    INDEX 01 03:45:30
  TRACK 129 AUDIO
    TITLE "0:"
    INDEX 01 03:46:38
  TRACK 130 AUDIO
    TITLE "34:cjc135_4218"
    INDEX 01 03:47:10
  TRACK 131 AUDIO
    TITLE "0:"
    INDEX 01 03:52:52
  TRACK 132 AUDIO
    TITLE "35:cjc135_4219"
    INDEX 01 03:53:02
  TRACK 133 AUDIO
    TITLE "0:"
    INDEX 01 04:00:30
  TRACK 134 AUDIO
    TITLE "36:cjc135_4220"
    INDEX 01 04:00:57
  TRACK 135 AUDIO
    TITLE "0:"
    INDEX 01 04:08:10
  TRACK 136 AUDIO
    TITLE "33:cjc135_4221"
    INDEX 01 04:09:11
  TRACK 137 AUDIO
    TITLE "0:"
    INDEX 01 04:10:18
  TRACK 138 AUDIO
    TITLE "34:cjc135_4222"
    INDEX 01 04:10:67
  TRACK 139 AUDIO
    TITLE "0:"
    INDEX 01 04:14:26
  TRACK 140 AUDIO
    TITLE "35:cjc135_4223"
    INDEX 01 04:14:50
  TRACK 141 AUDIO
    TITLE "0:"
    INDEX 01 04:17:30
  TRACK 142 AUDIO
    TITLE "36:cjc135_4224"
    INDEX 01 04:17:58
  TRACK 143 AUDIO
    TITLE "0:"
    INDEX 01 04:20:38
  TRACK 144 AUDIO
    TITLE "33:cjc135_4225"
    INDEX 01 04:21:40
  TRACK 145 AUDIO
    TITLE "0:"
    INDEX 01 04:23:09
  TRACK 146 AUDIO
    TITLE "34:cjc135_4226"
    INDEX 01 04:23:60
  TRACK 147 AUDIO
    TITLE "0:"
    INDEX 01 04:26:74
  TRACK 148 AUDIO
    TITLE "35:cjc135_4227"
    INDEX 01 04:27:25
  TRACK 149 AUDIO
    TITLE "0:"
    INDEX 01 04:29:61
  TRACK 150 AUDIO
    TITLE "36:cjc135_4228"
    INDEX 01 04:30:13
  TRACK 151 AUDIO
    TITLE "0:"
    INDEX 01 04:32:49
  TRACK 152 AUDIO
    TITLE "33:cjc135_4229"
    INDEX 01 04:33:49
  TRACK 153 AUDIO
    TITLE "0:"
    INDEX 01 04:34:60
  TRACK 154 AUDIO
    TITLE "34:cjc135_4230"
    INDEX 01 04:35:34
  TRACK 155 AUDIO
    TITLE "0:"
    INDEX 01 04:38:54
  TRACK 156 AUDIO
    TITLE "35:cjc135_4231"
    INDEX 01 04:39:06
  TRACK 157 AUDIO
    TITLE "0:"
    INDEX 01 04:42:17
  TRACK 158 AUDIO
    TITLE "36:cjc135_4232"
    INDEX 01 04:42:42
  TRACK 159 AUDIO
    TITLE "0:"
    INDEX 01 04:45:52
  TRACK 160 AUDIO
    TITLE "33:cjc135_4233"
    INDEX 01 04:46:52
  TRACK 161 AUDIO
    TITLE "0:"
    INDEX 01 04:47:61
  TRACK 162 AUDIO
    TITLE "34:cjc135_4234"
    INDEX 01 04:48:35
  TRACK 163 AUDIO
    TITLE "0:"
    INDEX 01 04:50:69
  TRACK 164 AUDIO
    TITLE "35:cjc135_4235"
    INDEX 01 04:51:21
  TRACK 165 AUDIO
    TITLE "0:"
    INDEX 01 04:53:63
  TRACK 166 AUDIO
    TITLE "36:cjc135_4236"
    INDEX 01 04:54:14
  TRACK 167 AUDIO
    TITLE "0:"
    INDEX 01 04:56:54
  TRACK 168 AUDIO
    TITLE "33:cjc135_4237"
    INDEX 01 04:57:57
  TRACK 169 AUDIO
    TITLE "0:"
    INDEX 01 04:59:09
  TRACK 170 AUDIO
    TITLE "34:cjc135_4238"
    INDEX 01 04:59:60
  TRACK 171 AUDIO
    TITLE "0:"
    INDEX 01 05:05:20
  TRACK 172 AUDIO
    TITLE "35:cjc135_4239"
    INDEX 01 05:05:45
  TRACK 173 AUDIO
    TITLE "0:"
    INDEX 01 05:10:58
  TRACK 174 AUDIO
    TITLE "36:cjc135_4240"
    INDEX 01 05:11:10
  TRACK 175 AUDIO
    TITLE "0:"
    INDEX 01 05:16:25
  TRACK 176 AUDIO
    TITLE "33:cjc135_4241"
    INDEX 01 05:17:25
  TRACK 177 AUDIO
    TITLE "0:"
    INDEX 01 05:18:34
  TRACK 178 AUDIO
    TITLE "34:cjc135_4242"
    INDEX 01 05:19:10
  TRACK 179 AUDIO
    TITLE "0:"
    INDEX 01 05:21:38
  TRACK 180 AUDIO
    TITLE "35:cjc135_4243"
    INDEX 01 05:21:64
  TRACK 181 AUDIO
    TITLE "0:"
    INDEX 01 05:24:31
  TRACK 182 AUDIO
    TITLE "36:cjc135_4244"
    INDEX 01 05:24:58
  TRACK 183 AUDIO
    TITLE "0:"
    INDEX 01 05:27:25
  TRACK 184 AUDIO
    TITLE "33:cjc135_4245"
    INDEX 01 05:28:26
  TRACK 185 AUDIO
    TITLE "0:"
    INDEX 01 05:29:45
  TRACK 186 AUDIO
    TITLE "34:cjc135_4246"
    INDEX 01 05:30:21
  TRACK 187 AUDIO
    TITLE "0:"
    INDEX 01 05:33:02
  TRACK 188 AUDIO
    TITLE "35:cjc135_4247"
    INDEX 01 05:33:26
  TRACK 189 AUDIO
    TITLE "0:"
    INDEX 01 05:35:48
  TRACK 190 AUDIO
    TITLE "36:cjc135_4248"
    INDEX 01 05:36:12
  TRACK 191 AUDIO
    TITLE "0:"
    INDEX 01 05:38:39
  TRACK 192 AUDIO
    TITLE "34:cjc135_4249"
    INDEX 01 05:39:50
  TRACK 193 AUDIO
    TITLE "0:"
    INDEX 01 05:43:14
  TRACK 194 AUDIO
    TITLE "35:cjc135_4250"
    INDEX 01 05:43:34
  TRACK 195 AUDIO
    TITLE "0:"
    INDEX 01 05:46:32
  TRACK 196 AUDIO
    TITLE "36:cjc135_4251"
    INDEX 01 05:46:52
  TRACK 197 AUDIO
    TITLE "0:"
    INDEX 01 05:49:48
  TRACK 198 AUDIO
    TITLE "33:cjc135_4252"
    INDEX 01 05:50:50
  TRACK 199 AUDIO
    TITLE "0:"
    INDEX 01 05:52:03
  TRACK 200 AUDIO
    TITLE "34:cjc135_4253"
    INDEX 01 05:52:52
  TRACK 201 AUDIO
    TITLE "0:"
    INDEX 01 05:55:59
  TRACK 202 AUDIO
    TITLE "35:cjc135_4254"
    INDEX 01 05:56:07
  TRACK 203 AUDIO
    TITLE "0:"
    INDEX 01 05:58:55
  TRACK 204 AUDIO
    TITLE "36:cjc135_4255"
    INDEX 01 05:59:05
  TRACK 205 AUDIO
    TITLE "0:"
    INDEX 01 06:01:53
  TRACK 206 AUDIO
    TITLE "33:cjc135_4256"
    INDEX 01 06:02:53
  TRACK 207 AUDIO
    TITLE "0:"
    INDEX 01 06:03:54
  TRACK 208 AUDIO
    TITLE "34:cjc135_4257"
    INDEX 01 06:04:28
  TRACK 209 AUDIO
    TITLE "0:"
    INDEX 01 06:07:58
  TRACK 210 AUDIO
    TITLE "35:cjc135_4258"
    INDEX 01 06:08:10
  TRACK 211 AUDIO
    TITLE "0:"
    INDEX 01 06:10:37
  TRACK 212 AUDIO
    TITLE "36:cjc135_4259"
    INDEX 01 06:10:60
  TRACK 213 AUDIO
    TITLE "0:"
    INDEX 01 06:13:11
